<svg width="15" height="21" viewBox="0 0 15 21" fill="none" xmlns="http://www.w3.org/2000/svg">
<rect x="2.94702" y="8.89285" width="8.75634" height="10.5357" rx="0.535714" fill="#F8961A"/>
<path d="M5.36719 0.795898C5.48624 0.818602 5.568 0.829752 5.63965 0.852539C5.93881 0.947794 6.23671 1.07249 6.52148 1.21289C6.84444 1.37212 7.153 1.54861 7.4375 1.75781C7.59374 1.87273 7.73647 2.00878 7.89648 2.15234C8.09022 2.32614 8.27679 2.48703 8.44043 2.66602C9.2179 3.51685 9.83639 4.6392 10.1104 5.75586C10.2894 6.48572 10.3451 7.27266 10.2402 8.01367C10.238 8.02936 10.2311 8.05712 10.2178 8.10645C10.2058 8.15076 10.1898 8.20869 10.1777 8.26562C10.166 8.32131 10.1554 8.38875 10.1572 8.45508C10.159 8.51786 10.1734 8.6145 10.2461 8.69141L10.3047 8.75293L10.3896 8.75391C10.4947 8.75446 10.6049 8.70817 10.6895 8.66504C10.7822 8.6177 10.8803 8.55414 10.9727 8.48926C11.1565 8.36007 11.3349 8.20971 11.4238 8.12207C11.8454 7.70604 12.0616 7.2183 12.1113 6.63867C12.1575 6.68934 12.2005 6.73525 12.2266 6.7666C13.6585 8.48983 14.532 10.4768 14.7422 12.708C14.7923 13.2406 14.8252 13.7265 14.7764 14.2441C14.6605 15.4724 14.2867 16.6559 13.5361 17.627C13.4275 17.7675 13.3027 17.8978 13.1709 18.042C12.9795 18.2511 12.7939 18.4493 12.5879 18.6191C11.5897 19.4418 10.4985 19.8676 9.22656 20.1396C8.84184 20.2219 8.56726 20.2547 8.30273 20.2998H6.70996C6.43317 20.2549 6.09704 20.1976 5.80566 20.1436H5.80664C5.24389 20.0359 4.69194 19.8785 4.15723 19.6729H4.1582C2.68897 19.0976 1.38948 17.8988 0.764648 16.4512C-0.287613 14.0131 0.152138 10.8482 1.91016 8.84668C2.31606 8.38457 2.7892 8.01968 3.26855 7.58398C3.9585 6.95686 4.65098 6.02582 5 5.15527C5.31684 4.3649 5.46693 3.47454 5.45312 2.62695C5.44946 2.40222 5.41803 2.17426 5.39844 1.97266C5.37802 1.76221 5.36378 1.52446 5.33203 1.29883C5.30375 1.0982 5.26772 0.934915 5.25 0.767578C5.29155 0.778334 5.33094 0.788983 5.36719 0.795898ZM8.63965 9.09961L8.6123 9.10059L8.58594 9.1084C8.05247 9.26749 7.641 9.4762 7.2959 9.77539C6.95219 10.0734 6.6848 10.4518 6.42578 10.9316C6.09186 11.5503 5.93295 12.2289 5.93652 12.9268C5.93686 12.9947 5.93891 13.0705 5.94336 13.1494C5.78679 13.0028 5.65431 12.8228 5.58105 12.6426C5.58081 12.6419 5.58015 12.6401 5.5791 12.6367C5.57765 12.6321 5.57628 12.6251 5.57422 12.6172C5.57007 12.6013 5.56569 12.5812 5.56055 12.5576C5.55106 12.514 5.53805 12.4497 5.52539 12.3945C5.51241 12.3379 5.49548 12.2742 5.47461 12.2188C5.46414 12.191 5.45025 12.1588 5.43164 12.1289C5.41473 12.1017 5.38341 12.0589 5.33105 12.0293L5.24609 11.9814L5.15723 12.0186C5.09117 12.0456 5.0319 12.0942 4.98633 12.1377C4.93693 12.1848 4.88518 12.2429 4.83398 12.3057C4.73127 12.4317 4.61987 12.5899 4.51465 12.75C4.30694 13.0661 4.10771 13.4152 4.04199 13.5723C3.58026 14.6779 3.32931 16.0602 3.82227 17.251C4.13524 18.0067 4.7076 18.5992 5.41895 18.9785L5.4248 18.9814C5.82237 19.177 6.21005 19.2866 6.63574 19.3613C7.26732 19.4722 7.63834 19.4783 8.27734 19.3701C8.54858 19.3242 8.81723 19.2698 9.08984 19.1768C9.97295 18.8747 10.6997 18.2342 11.1104 17.3965C11.5466 16.5041 11.5304 15.3722 11.2178 14.4658C11.0495 13.978 10.7968 13.5149 10.4307 13.1309C10.3368 13.0324 10.2305 12.9402 10.126 12.8535L9.83008 12.6104L9.69629 12.4863C9.39128 12.1896 9.14498 11.8288 9.00293 11.4365C8.83684 10.9775 8.79951 10.516 8.8457 10.0283L8.87012 9.81738C8.87307 9.79623 8.88026 9.76512 8.88965 9.71777C8.89834 9.67394 8.90832 9.61994 8.91602 9.56641C8.92351 9.51421 8.92977 9.45408 8.92773 9.39648C8.92592 9.34625 8.91725 9.25999 8.86328 9.1875L8.81348 9.12109L8.73145 9.10938L8.72168 9.10742C8.71711 9.10665 8.70945 9.10558 8.70215 9.10449C8.68791 9.10237 8.66551 9.09912 8.63965 9.09961Z" fill="#F0501F" stroke="black" stroke-width="0.4"/>
</svg>
