<svg width="75" height="75" viewBox="0 0 75 75" fill="none" xmlns="http://www.w3.org/2000/svg">
<g clip-path="url(#clip0_11_66)">
<rect x="-6.10352e-05" width="74.7635" height="74.7635" rx="21.8506" fill="#89E0EF"/>
<g filter="url(#filter0_f_11_66)">
<circle cx="9.96149" cy="4.60578" r="33.3115" fill="#C9FF4A"/>
</g>
<g filter="url(#filter1_f_11_66)">
<circle cx="63.8381" cy="63.624" r="33.2044" fill="#036FFD"/>
</g>
<rect x="25.5648" y="33.029" width="23.1148" height="27.8321" rx="2.35865" fill="white"/>
<path d="M31.165 10.8577H31.2869C31.2957 10.8637 31.3043 10.87 31.3133 10.8757C31.7171 11.1317 32.3742 11.1383 32.8332 11.2846C33.6528 11.5458 34.4633 11.8866 35.2337 12.2668C36.1046 12.6965 36.9486 13.1776 37.7321 13.7543C38.1717 14.0778 38.5772 14.464 38.9834 14.8286C39.4844 15.2785 40.0015 15.7267 40.456 16.2244C42.5644 18.5334 44.241 21.5751 44.9865 24.6159C45.4733 26.6014 45.6279 28.7474 45.3407 30.7794C45.2951 31.1026 44.9712 31.8745 45.2151 32.1327C45.7803 32.1356 47.1501 31.0316 47.571 30.6161C48.6238 29.5764 49.1488 28.3633 49.246 26.8855C49.2601 26.6717 49.2201 26.2377 49.328 26.0663C49.6449 26.0955 50.256 26.8226 50.4656 27.0749C54.3087 31.7029 56.6605 37.0501 57.226 43.0576C57.359 44.4707 57.4493 45.7958 57.3155 47.2158C57.0029 50.532 55.9921 53.761 53.9343 56.4253C53.63 56.8192 53.2784 57.1861 52.9424 57.5538C52.4389 58.1045 51.9275 58.6559 51.3511 59.1314C48.6306 61.3751 45.6619 62.5255 42.2504 63.2556C41.1997 63.4805 40.4242 63.5736 39.7428 63.6915H35.4572C34.7156 63.5714 33.8044 63.4162 33.0147 63.2697C31.4979 62.9795 30.0103 62.5544 28.5691 61.9996C24.5684 60.4322 21.0265 57.1681 19.3174 53.2054C16.4623 46.5853 17.6499 38.0067 22.431 32.5594C23.5282 31.3091 24.8317 30.294 26.0571 29.1794C27.8294 27.5673 29.6071 25.1727 30.494 22.9587C31.3022 20.9412 31.6868 18.6604 31.6514 16.4858C31.6423 15.9201 31.5643 15.3608 31.5097 14.7985C31.453 14.2135 31.4193 13.6252 31.3374 13.0429C31.2561 12.4648 31.1164 11.8733 31.0903 11.2905C31.0831 11.131 31.1069 11.0056 31.165 10.8577ZM34.2653 45.4417C33.325 45.0313 32.4186 44.0923 32.0294 43.1339C31.9188 42.8614 31.8182 41.8979 31.5977 41.7739C30.9549 42.0378 29.2475 44.8617 28.9412 45.5954C27.7469 48.4574 27.1393 51.9478 28.3636 54.9067C29.1388 56.78 30.5574 58.2558 32.3372 59.2056C33.331 59.695 34.3035 59.9711 35.3923 60.1624C37.0044 60.4456 37.9232 60.462 39.5478 60.1867C40.2542 60.0669 40.9301 59.9289 41.6097 59.6967C43.8085 58.9442 45.6182 57.3488 46.6406 55.2617C47.7182 53.0561 47.6869 50.2154 46.8972 47.9241C46.472 46.6908 45.8398 45.538 44.936 44.5893C44.4615 44.0912 43.9073 43.6962 43.3897 43.2482C42.3614 42.3583 41.5176 41.2081 41.0544 39.9276C40.5166 38.4401 40.4606 36.9557 40.6779 35.3983C40.7198 35.0975 40.9301 34.3538 40.7579 34.1229C40.7066 34.1153 40.6527 34.1028 40.601 34.1039C37.889 34.9131 36.5488 36.1891 35.2131 38.665C34.3756 40.2176 33.9754 41.9226 33.9846 43.6835C33.9869 44.1478 33.9973 44.6571 34.1346 45.1042C34.17 45.2194 34.2172 45.3312 34.2653 45.4417Z" fill="black"/>
</g>
<rect x="0.745646" y="0.745707" width="73.2721" height="73.2721" rx="21.1049" stroke="black" stroke-width="1.49141"/>
<defs>
<filter id="filter0_f_11_66" x="-73.478" y="-78.8337" width="166.879" height="166.879" filterUnits="userSpaceOnUse" color-interpolation-filters="sRGB">
<feFlood flood-opacity="0" result="BackgroundImageFix"/>
<feBlend mode="normal" in="SourceGraphic" in2="BackgroundImageFix" result="shape"/>
<feGaussianBlur stdDeviation="25.064" result="effect1_foregroundBlur_11_66"/>
</filter>
<filter id="filter1_f_11_66" x="-25.9209" y="-26.1351" width="179.518" height="179.518" filterUnits="userSpaceOnUse" color-interpolation-filters="sRGB">
<feFlood flood-opacity="0" result="BackgroundImageFix"/>
<feBlend mode="normal" in="SourceGraphic" in2="BackgroundImageFix" result="shape"/>
<feGaussianBlur stdDeviation="28.2773" result="effect1_foregroundBlur_11_66"/>
</filter>
<clipPath id="clip0_11_66">
<rect x="-6.10352e-05" width="74.7635" height="74.7635" rx="21.8506" fill="white"/>
</clipPath>
</defs>
</svg>
